# xmcd CD database file
#
# Track frame offsets:
#	150
#	22808
#	42423
#	64108
#	87764
#	114924
#	142507
#
# Disc length: 2239 seconds
#
# Revision: 0
# Processed by: cddbd v1.5.1PL0 Copyright (c) Steve Scherf et al.
# Submitted via: CDex 1.50
#
DISCID=4808bd07
DTITLE=日出撫仙湖 - 日出撫仙湖
DYEAR=2004
DGENRE=New Age
TTITLE0=撫仙湖姑娘
TTITLE1=聽山嵐
TTITLE2=日出撫仙湖
TTITLE3=銅鼓聲聲
TTITLE4=聽湖
TTITLE5=聽樂
TTITLE6=一個神祕的傳說
EXTD=YEAR: 2004
EXTT0=
EXTT1=
EXTT2=
EXTT3=
EXTT4=
EXTT5=
EXTT6=
PLAYORDER=
